<?xml version="1.0" encoding="UTF-8" standalone="no"?>
<!-- Created with Inkscape (http://www.inkscape.org/) -->

<svg
   width="64"
   height="64"
   viewBox="0 0 16.933333 16.933333"
   version="1.1"
   id="svg1"
   inkscape:version="1.4.2 (ebf0e940d0, 2025-05-08)"
   sodipodi:docname="bomb.svg"
   xmlns:inkscape="http://www.inkscape.org/namespaces/inkscape"
   xmlns:sodipodi="http://sodipodi.sourceforge.net/DTD/sodipodi-0.dtd"
   xmlns="http://www.w3.org/2000/svg"
   xmlns:svg="http://www.w3.org/2000/svg">
  <sodipodi:namedview
     id="namedview1"
     pagecolor="#ffffff"
     bordercolor="#000000"
     borderopacity="0.25"
     inkscape:showpageshadow="2"
     inkscape:pageopacity="0.0"
     inkscape:pagecheckerboard="0"
     inkscape:deskcolor="#d1d1d1"
     inkscape:document-units="mm"
     inkscape:zoom="1.9830139"
     inkscape:cx="77.659566"
     inkscape:cy="184.3154"
     inkscape:window-width="1920"
     inkscape:window-height="996"
     inkscape:window-x="0"
     inkscape:window-y="0"
     inkscape:window-maximized="1"
     inkscape:current-layer="layer1" />
  <defs
     id="defs1">
    <inkscape:path-effect
       effect="bspline"
       id="path-effect4"
       is_visible="true"
       lpeversion="1.3"
       weight="33.333333"
       steps="2"
       helper_size="0"
       apply_no_weight="true"
       apply_with_weight="true"
       only_selected="false"
       uniform="false" />
  </defs>
  <g
     inkscape:label="Layer 1"
     inkscape:groupmode="layer"
     id="layer1">
    <circle
       style="fill:#424242;fill-opacity:1;fill-rule:evenodd;stroke-width:0.475549"
       id="path3"
       cx="5.8231363"
       cy="11.110197"
       r="5.8231363" />
    <path
       style="fill:none;fill-opacity:1;stroke:#7b7b7b;stroke-width:0.529167;stroke-linecap:butt;stroke-linejoin:round;stroke-dasharray:none;stroke-opacity:1"
       d="m 14.94159,13.152869 c 0,0 0,0 0.01659,-0.04691 0.01659,-0.04691 0.04976,-0.140709 0.07125,-0.192513 0.02149,-0.0518 0.03124,-0.06156 0.03612,-0.149513 0.0049,-0.08796 0.0049,-0.254105 -0.0049,-0.351839 -0.0098,-0.09773 -0.02932,-0.12705 -0.04398,-0.166149 -0.01466,-0.0391 -0.02443,-0.08795 -0.02932,-0.161253 -0.0049,-0.0733 -0.0049,-0.171035 -0.01466,-0.361615 -0.0098,-0.190579 -0.02932,-0.474005 -0.01955,-0.630377 0.0098,-0.156372 0.04887,-0.185696 0.08308,-0.244335 0.03421,-0.05864 0.06353,-0.146598 0.107507,-0.215012 0.04398,-0.06841 0.102617,-0.117278 0.166143,-0.175917 0.06353,-0.05864 0.131942,-0.127055 0.175923,-0.161262 0.04398,-0.03421 0.06352,-0.03421 0.102617,-0.04887 0.03909,-0.01466 0.09773,-0.04398 0.1466,-0.0733 0.04887,-0.02932 0.08796,-0.05864 0.131943,-0.0733 0.04398,-0.01466 0.09284,-0.01466 0.210123,-0.01955 0.117281,-0.0049 0.302973,-0.01466 0.430026,0.0049 0.127053,0.01955 0.195465,0.06841 0.244332,0.112392 0.04887,0.04398 0.07819,0.08308 0.131942,0.136829 0.05375,0.05375 0.131939,0.122165 0.171033,0.166146 0.03909,0.04398 0.03909,0.06352 0.04398,0.08796 0.0049,0.02444 0.01466,0.05375 0.02932,0.08307 0.01466,0.02932 0.03421,0.05864 0.05864,0.117278 0.02443,0.05864 0.05375,0.146601 0.08307,0.219901 0.02932,0.0733 0.05864,0.131939 0.08796,0.175919 0.02932,0.04398 0.05864,0.0733 0.09773,0.131941 0.03909,0.05864 0.08796,0.146598 0.180805,0.254105 0.09285,0.107506 0.229673,0.234559 0.342066,0.312746 0.112393,0.07819 0.200353,0.107506 0.381159,0.127053 0.180807,0.01955 0.454459,0.02932 0.659699,-0.0098 0.205239,-0.03909 0.342065,-0.127053 0.420251,-0.190578 0.07819,-0.06353 0.09773,-0.102622 0.127053,-0.131941 0.02932,-0.02932 0.06842,-0.04887 0.107506,-0.07818 0.03909,-0.02932 0.07819,-0.06842 0.11728,-0.107507"
       id="path4"
       inkscape:path-effect="#path-effect4"
       inkscape:original-d="m 14.94159,13.152869 v 0 c 0.03318,-0.09381 0.06635,-0.187615 0.09953,-0.281423 0.0098,-0.0098 0.01955,-0.01955 0.02932,-0.02932 0,-0.166146 0,-0.332293 0,-0.498439 -0.01955,-0.02932 -0.03909,-0.05864 -0.05864,-0.08796 -0.0098,-0.04887 -0.01955,-0.09773 -0.02932,-0.146599 0,-0.09773 0,-0.195466 0,-0.293199 -0.01955,-0.283426 -0.03909,-0.566852 -0.05864,-0.850278 0.03909,-0.02932 0.07819,-0.05864 0.11728,-0.08796 0.02932,-0.08796 0.05864,-0.175919 0.08796,-0.263879 0.05864,-0.04887 0.11728,-0.09773 0.175919,-0.1466 0.06841,-0.06841 0.136827,-0.136826 0.20524,-0.205239 0.01955,0 0.03909,0 0.05864,0 0.05864,-0.02932 0.117279,-0.05864 0.175919,-0.08796 0.03909,-0.02932 0.07819,-0.05864 0.11728,-0.08796 0.04887,0 0.09773,0 0.1466,0 0.185692,-0.0098 0.371385,-0.01955 0.557078,-0.02932 0.06841,0.04887 0.136826,0.09773 0.20524,0.1466 0.02932,0.03909 0.05864,0.07819 0.08796,0.11728 0.07819,0.06841 0.156373,0.136826 0.23456,0.205239 0,0.01955 0,0.03909 0,0.05864 0.0098,0.02932 0.01955,0.05864 0.02932,0.08796 0.01955,0.02932 0.03909,0.05864 0.05864,0.08796 0.02932,0.08796 0.05864,0.17592 0.08796,0.26388 0.02932,0.05864 0.05864,0.117279 0.08796,0.175919 0.02932,0.02932 0.05864,0.05864 0.08796,0.08796 0.04887,0.08796 0.09773,0.17592 0.146599,0.263879 0.136827,0.127053 0.273653,0.254106 0.410479,0.381159 0.08796,0.02932 0.17592,0.05864 0.26388,0.08796 0.273652,0.0098 0.547305,0.01955 0.820957,0.02932 0.136827,-0.08796 0.273653,-0.17592 0.410479,-0.263879 0.01955,-0.03909 0.03909,-0.07819 0.05864,-0.11728 0.03909,-0.01955 0.07819,-0.03909 0.11728,-0.05864 0.03909,-0.03909 0.07819,-0.07819 0.117279,-0.117279"
       sodipodi:nodetypes="ccccccccccccccccccccccccccccccccccc"
       transform="matrix(1.4035818,0,0,1.4035818,-12.83971,-12.696763)" />
    <circle
       style="fill:#ff6b00;fill-opacity:1;fill-rule:evenodd;stroke-width:0.641106"
       id="path6"
       cx="14.938507"
       cy="3.4351826"
       r="0.6343931" />
    <path
       style="fill:none;fill-rule:evenodd;stroke:#f39d08;stroke-width:0.186425;stroke-dasharray:none;stroke-opacity:1"
       id="path8"
       sodipodi:type="arc"
       sodipodi:cx="14.435632"
       sodipodi:cy="-8.9811153"
       sodipodi:rx="1.021252"
       sodipodi:ry="0.48741576"
       sodipodi:start="3.5484875"
       sodipodi:end="5.1136685"
       sodipodi:arc-type="arc"
       d="m 13.497761,-9.1740148 a 1.021252,0.48741576 0 0 1 1.336768,-0.255797"
       sodipodi:open="true"
       transform="rotate(49.224832)" />
    <path
       style="fill:none;fill-rule:evenodd;stroke:#f39d08;stroke-width:0.186425;stroke-dasharray:none;stroke-opacity:1"
       id="path9"
       sodipodi:type="arc"
       sodipodi:cx="4.7936373"
       sodipodi:cy="14.381082"
       sodipodi:rx="1.021252"
       sodipodi:ry="0.48741576"
       sodipodi:start="3.5484875"
       sodipodi:end="5.1136685"
       sodipodi:arc-type="arc"
       d="M 3.8557662,14.188182 A 1.021252,0.48741576 0 0 1 5.1925348,13.932385"
       sodipodi:open="true"
       transform="rotate(-63.952736)" />
  </g>
</svg>
